<mxfile host="app.diagrams.net" modified="2021-01-29T03:13:42.105Z" agent="5.0 (Macintosh; Intel Mac OS X 10_11_6) AppleWebKit/537.36 (KHTML, like Gecko) Chrome/88.0.4324.96 Safari/537.36" etag="QiG34jpgQGovgbEjdEkN" version="14.2.7" type="github">
  <diagram id="kIEMTCx0gi_bx5Pg1JLH" name="Page-1">
    <mxGraphModel dx="748" dy="490" grid="1" gridSize="10" guides="1" tooltips="1" connect="1" arrows="1" fold="1" page="1" pageScale="3" pageWidth="827" pageHeight="1169" math="0" shadow="0">
      <root>
        <mxCell id="0" />
        <mxCell id="1" parent="0" />
        <mxCell id="0vXuv65OL3T8f2UpIAVe-9" value="" style="rounded=0;whiteSpace=wrap;html=1;fillColor=#66B2FF;" vertex="1" parent="1">
          <mxGeometry x="450" y="310" width="1000" height="620" as="geometry" />
        </mxCell>
        <mxCell id="0vXuv65OL3T8f2UpIAVe-3" value="" style="rounded=0;whiteSpace=wrap;html=1;fillColor=#6666FF;strokeColor=none;" vertex="1" parent="1">
          <mxGeometry x="480" y="390" width="40" height="520" as="geometry" />
        </mxCell>
        <mxCell id="0vXuv65OL3T8f2UpIAVe-4" value="&lt;font style=&quot;font-size: 20px&quot; color=&quot;#ffffff&quot;&gt;统一技术标准&lt;/font&gt;" style="text;html=1;strokeColor=none;fillColor=none;align=center;verticalAlign=middle;whiteSpace=wrap;rounded=0;" vertex="1" parent="1">
          <mxGeometry x="480" y="495" width="40" height="310" as="geometry" />
        </mxCell>
        <mxCell id="0vXuv65OL3T8f2UpIAVe-5" value="" style="rounded=0;whiteSpace=wrap;html=1;fillColor=#6666FF;strokeColor=none;" vertex="1" parent="1">
          <mxGeometry x="530" y="390" width="40" height="520" as="geometry" />
        </mxCell>
        <mxCell id="0vXuv65OL3T8f2UpIAVe-6" value="&lt;font style=&quot;font-size: 20px&quot; color=&quot;#ffffff&quot;&gt;统一运维标准&lt;/font&gt;" style="text;html=1;strokeColor=none;fillColor=none;align=center;verticalAlign=middle;whiteSpace=wrap;rounded=0;" vertex="1" parent="1">
          <mxGeometry x="530" y="495" width="40" height="310" as="geometry" />
        </mxCell>
        <mxCell id="0vXuv65OL3T8f2UpIAVe-7" value="" style="rounded=0;whiteSpace=wrap;html=1;fillColor=#6666FF;strokeColor=none;" vertex="1" parent="1">
          <mxGeometry x="580" y="390" width="40" height="520" as="geometry" />
        </mxCell>
        <mxCell id="0vXuv65OL3T8f2UpIAVe-8" value="&lt;font style=&quot;font-size: 20px&quot; color=&quot;#ffffff&quot;&gt;统一安全标准&lt;/font&gt;" style="text;html=1;strokeColor=none;fillColor=none;align=center;verticalAlign=middle;whiteSpace=wrap;rounded=0;" vertex="1" parent="1">
          <mxGeometry x="580" y="495" width="40" height="310" as="geometry" />
        </mxCell>
        <mxCell id="0vXuv65OL3T8f2UpIAVe-10" value="" style="rounded=0;whiteSpace=wrap;html=1;fillColor=#6666FF;strokeColor=none;" vertex="1" parent="1">
          <mxGeometry x="630" y="390" width="760" height="130" as="geometry" />
        </mxCell>
        <mxCell id="0vXuv65OL3T8f2UpIAVe-11" value="" style="rounded=0;whiteSpace=wrap;html=1;fillColor=#0066CC;strokeColor=none;" vertex="1" parent="1">
          <mxGeometry x="670" y="400" width="230" height="50" as="geometry" />
        </mxCell>
        <mxCell id="0vXuv65OL3T8f2UpIAVe-14" value="" style="rounded=0;whiteSpace=wrap;html=1;fillColor=#0066CC;strokeColor=none;" vertex="1" parent="1">
          <mxGeometry x="910" y="400" width="230" height="50" as="geometry" />
        </mxCell>
        <mxCell id="0vXuv65OL3T8f2UpIAVe-15" value="" style="rounded=0;whiteSpace=wrap;html=1;fillColor=#0066CC;strokeColor=none;" vertex="1" parent="1">
          <mxGeometry x="1150" y="400" width="230" height="50" as="geometry" />
        </mxCell>
      </root>
    </mxGraphModel>
  </diagram>
</mxfile>
